<?xml version="1.0" encoding="UTF-8"?>
<svg version="1.1" xmlns="http://www.w3.org/2000/svg" width="3300" height="2200" viewBox="0 0 3300 2200">
  <g id="Notes">
    <rect id="artboard" x="0" y="0" width="3300" height="2200" fill="white"/>
    <text id="template-version" style="stroke:none;fill:black;font-family:sans-serif;font-size:13;text-anchor:end;" transform="matrix(1 0 0 1 3036 1933)">Template v.2.0</text>
    <text id="descriptive-name" style="stroke:none;fill:black;font-family:sans-serif;font-size:13;text-anchor:end;" transform="matrix(1 0 0 1 3036 1953)">metro-source</text>
    <text x="759.87" y="400" text-anchor="middle" font-size="12" fill="#000000">Ultralight</text>
    <text x="1056.58" y="400" text-anchor="middle" font-size="12" fill="#000000">Thin</text>
    <text x="1353.29" y="400" text-anchor="middle" font-size="12" fill="#000000">Light</text>
    <text x="1650.00" y="400" text-anchor="middle" font-size="12" fill="#000000">Regular</text>
    <text x="1946.71" y="400" text-anchor="middle" font-size="12" fill="#000000">Medium</text>
    <text x="2243.42" y="400" text-anchor="middle" font-size="12" fill="#000000">Semibold</text>
    <text x="2540.13" y="400" text-anchor="middle" font-size="12" fill="#000000">Bold</text>
    <text x="2836.84" y="400" text-anchor="middle" font-size="12" fill="#000000">Heavy</text>
    <text x="3133.55" y="400" text-anchor="middle" font-size="12" fill="#000000">Black</text>
    <text x="200" y="660.77" text-anchor="middle" font-size="12" fill="#000000">S</text>
    <text x="200" y="1090.77" text-anchor="middle" font-size="12" fill="#000000">M</text>
    <text x="200" y="1520.77" text-anchor="middle" font-size="12" fill="#000000">L</text>
  </g>
  <g id="Guides">
    <line id="Baseline-S" x1="0" y1="696" x2="3300" y2="696" stroke="#27AAE1" stroke-width="0.5"/>
    <line id="Capline-S" x1="0" y1="625.541" x2="3300" y2="625.541" stroke="#27AAE1" stroke-width="0.5"/>
    <line id="Baseline-M" x1="0" y1="1126" x2="3300" y2="1126" stroke="#27AAE1" stroke-width="0.5"/>
    <line id="Capline-M" x1="0" y1="1055.54" x2="3300" y2="1055.54" stroke="#27AAE1" stroke-width="0.5"/>
    <line id="Baseline-L" x1="0" y1="1556" x2="3300" y2="1556" stroke="#27AAE1" stroke-width="0.5"/>
    <line id="Capline-L" x1="0" y1="1485.54" x2="3300" y2="1485.54" stroke="#27AAE1" stroke-width="0.5"/>
    <line id="left-margin" x1="1596.05" y1="0" x2="1596.05" y2="2200" stroke="#27AAE1" stroke-width="0.5"/>
    <line id="right-margin" x1="1703.95" y1="0" x2="1703.95" y2="2200" stroke="#27AAE1" stroke-width="0.5"/>
  </g>
  <g id="Symbols">
    <g id="Ultralight-S" transform="matrix(4.219533295454543 0 0 4.219533295454543 715.5649 614.3556)">
      <path d="M4.85689 0V8.04584H0V10.5954L10.5 22L21 10.5954V8.04584H16.1432V0H13.445L10.5 3.60308L7.55508 0H4.85689ZM7.4472 3.74043L10.5 7.49617L13.5529 3.74043V10.5802H17.423L10.5 18.0458L3.57711 10.5802H7.4472V3.74043Z"/>
    </g>
    <g id="Ultralight-M" transform="matrix(4.219593181818184 0 0 4.219593181818184 715.5643 1044.3545)">
      <path d="M4.85689 0V8.04584H0V10.5954L10.5 22L21 10.5954V8.04584H16.1432V0H13.445L10.5 3.60308L7.55508 0H4.85689ZM7.4472 3.74043L10.5 7.49617L13.5529 3.74043V10.5802H17.423L10.5 18.0458L3.57711 10.5802H7.4472V3.74043Z"/>
    </g>
    <g id="Ultralight-L" transform="matrix(4.219593181818184 0 0 4.219593181818184 715.5643 1474.3545)">
      <path d="M4.85689 0V8.04584H0V10.5954L10.5 22L21 10.5954V8.04584H16.1432V0H13.445L10.5 3.60308L7.55508 0H4.85689ZM7.4472 3.74043L10.5 7.49617L13.5529 3.74043V10.5802H17.423L10.5 18.0458L3.57711 10.5802H7.4472V3.74043Z"/>
    </g>
    <g id="Thin-S" transform="matrix(4.3828700681818145 0 0 4.3828700681818145 1010.5599 612.5589)">
      <path d="M4.85689 0V8.04584H0V10.5954L10.5 22L21 10.5954V8.04584H16.1432V0H13.445L10.5 3.60308L7.55508 0H4.85689ZM7.4472 3.74043L10.5 7.49617L13.5529 3.74043V10.5802H17.423L10.5 18.0458L3.57711 10.5802H7.4472V3.74043Z"/>
    </g>
    <g id="Thin-M" transform="matrix(4.382932272727275 0 0 4.382932272727275 1010.5592 1042.5577)">
      <path d="M4.85689 0V8.04584H0V10.5954L10.5 22L21 10.5954V8.04584H16.1432V0H13.445L10.5 3.60308L7.55508 0H4.85689ZM7.4472 3.74043L10.5 7.49617L13.5529 3.74043V10.5802H17.423L10.5 18.0458L3.57711 10.5802H7.4472V3.74043Z"/>
    </g>
    <g id="Thin-L" transform="matrix(4.382932272727275 0 0 4.382932272727275 1010.5592 1472.5577)">
      <path d="M4.85689 0V8.04584H0V10.5954L10.5 22L21 10.5954V8.04584H16.1432V0H13.445L10.5 3.60308L7.55508 0H4.85689ZM7.4472 3.74043L10.5 7.49617L13.5529 3.74043V10.5802H17.423L10.5 18.0458L3.57711 10.5802H7.4472V3.74043Z"/>
    </g>
    <g id="Light-S" transform="matrix(4.546206840909087 0 0 4.546206840909087 1305.5548 610.7622)">
      <path d="M4.85689 0V8.04584H0V10.5954L10.5 22L21 10.5954V8.04584H16.1432V0H13.445L10.5 3.60308L7.55508 0H4.85689ZM7.4472 3.74043L10.5 7.49617L13.5529 3.74043V10.5802H17.423L10.5 18.0458L3.57711 10.5802H7.4472V3.74043Z"/>
    </g>
    <g id="Light-M" transform="matrix(4.546271363636365 0 0 4.546271363636365 1305.5542 1040.7610)">
      <path d="M4.85689 0V8.04584H0V10.5954L10.5 22L21 10.5954V8.04584H16.1432V0H13.445L10.5 3.60308L7.55508 0H4.85689ZM7.4472 3.74043L10.5 7.49617L13.5529 3.74043V10.5802H17.423L10.5 18.0458L3.57711 10.5802H7.4472V3.74043Z"/>
    </g>
    <g id="Light-L" transform="matrix(4.546271363636365 0 0 4.546271363636365 1305.5542 1470.7610)">
      <path d="M4.85689 0V8.04584H0V10.5954L10.5 22L21 10.5954V8.04584H16.1432V0H13.445L10.5 3.60308L7.55508 0H4.85689ZM7.4472 3.74043L10.5 7.49617L13.5529 3.74043V10.5802H17.423L10.5 18.0458L3.57711 10.5802H7.4472V3.74043Z"/>
    </g>
    <g id="Regular-S" transform="matrix(4.7095436136363595 0 0 4.7095436136363595 1600.5498 608.9655)">
      <path d="M4.85689 0V8.04584H0V10.5954L10.5 22L21 10.5954V8.04584H16.1432V0H13.445L10.5 3.60308L7.55508 0H4.85689ZM7.4472 3.74043L10.5 7.49617L13.5529 3.74043V10.5802H17.423L10.5 18.0458L3.57711 10.5802H7.4472V3.74043Z"/>
    </g>
    <g id="Regular-M" transform="matrix(4.709610454545457 0 0 4.709610454545457 1600.5491 1038.9643)">
      <path d="M4.85689 0V8.04584H0V10.5954L10.5 22L21 10.5954V8.04584H16.1432V0H13.445L10.5 3.60308L7.55508 0H4.85689ZM7.4472 3.74043L10.5 7.49617L13.5529 3.74043V10.5802H17.423L10.5 18.0458L3.57711 10.5802H7.4472V3.74043Z"/>
    </g>
    <g id="Regular-L" transform="matrix(4.709610454545457 0 0 4.709610454545457 1600.5491 1468.9643)">
      <path d="M4.85689 0V8.04584H0V10.5954L10.5 22L21 10.5954V8.04584H16.1432V0H13.445L10.5 3.60308L7.55508 0H4.85689ZM7.4472 3.74043L10.5 7.49617L13.5529 3.74043V10.5802H17.423L10.5 18.0458L3.57711 10.5802H7.4472V3.74043Z"/>
    </g>
    <g id="Medium-S" transform="matrix(4.872880386363633 0 0 4.872880386363633 1895.5448 607.1688)">
      <path d="M4.85689 0V8.04584H0V10.5954L10.5 22L21 10.5954V8.04584H16.1432V0H13.445L10.5 3.60308L7.55508 0H4.85689ZM7.4472 3.74043L10.5 7.49617L13.5529 3.74043V10.5802H17.423L10.5 18.0458L3.57711 10.5802H7.4472V3.74043Z"/>
    </g>
    <g id="Medium-M" transform="matrix(4.872949545454548 0 0 4.872949545454548 1895.5440 1037.1676)">
      <path d="M4.85689 0V8.04584H0V10.5954L10.5 22L21 10.5954V8.04584H16.1432V0H13.445L10.5 3.60308L7.55508 0H4.85689ZM7.4472 3.74043L10.5 7.49617L13.5529 3.74043V10.5802H17.423L10.5 18.0458L3.57711 10.5802H7.4472V3.74043Z"/>
    </g>
    <g id="Medium-L" transform="matrix(4.872949545454548 0 0 4.872949545454548 1895.5440 1467.1676)">
      <path d="M4.85689 0V8.04584H0V10.5954L10.5 22L21 10.5954V8.04584H16.1432V0H13.445L10.5 3.60308L7.55508 0H4.85689ZM7.4472 3.74043L10.5 7.49617L13.5529 3.74043V10.5802H17.423L10.5 18.0458L3.57711 10.5802H7.4472V3.74043Z"/>
    </g>
    <g id="Semibold-S" transform="matrix(5.0362171590909055 0 0 5.0362171590909055 2190.5397 605.3721)">
      <path d="M4.85689 0V8.04584H0V10.5954L10.5 22L21 10.5954V8.04584H16.1432V0H13.445L10.5 3.60308L7.55508 0H4.85689ZM7.4472 3.74043L10.5 7.49617L13.5529 3.74043V10.5802H17.423L10.5 18.0458L3.57711 10.5802H7.4472V3.74043Z"/>
    </g>
    <g id="Semibold-M" transform="matrix(5.036288636363639 0 0 5.036288636363639 2190.5390 1035.3708)">
      <path d="M4.85689 0V8.04584H0V10.5954L10.5 22L21 10.5954V8.04584H16.1432V0H13.445L10.5 3.60308L7.55508 0H4.85689ZM7.4472 3.74043L10.5 7.49617L13.5529 3.74043V10.5802H17.423L10.5 18.0458L3.57711 10.5802H7.4472V3.74043Z"/>
    </g>
    <g id="Semibold-L" transform="matrix(5.036288636363639 0 0 5.036288636363639 2190.5390 1465.3708)">
      <path d="M4.85689 0V8.04584H0V10.5954L10.5 22L21 10.5954V8.04584H16.1432V0H13.445L10.5 3.60308L7.55508 0H4.85689ZM7.4472 3.74043L10.5 7.49617L13.5529 3.74043V10.5802H17.423L10.5 18.0458L3.57711 10.5802H7.4472V3.74043Z"/>
    </g>
    <g id="Bold-S" transform="matrix(5.199553931818177 0 0 5.199553931818177 2485.5347 603.5754)">
      <path d="M4.85689 0V8.04584H0V10.5954L10.5 22L21 10.5954V8.04584H16.1432V0H13.445L10.5 3.60308L7.55508 0H4.85689ZM7.4472 3.74043L10.5 7.49617L13.5529 3.74043V10.5802H17.423L10.5 18.0458L3.57711 10.5802H7.4472V3.74043Z"/>
    </g>
    <g id="Bold-M" transform="matrix(5.19962772727273 0 0 5.19962772727273 2485.5339 1033.5741)">
      <path d="M4.85689 0V8.04584H0V10.5954L10.5 22L21 10.5954V8.04584H16.1432V0H13.445L10.5 3.60308L7.55508 0H4.85689ZM7.4472 3.74043L10.5 7.49617L13.5529 3.74043V10.5802H17.423L10.5 18.0458L3.57711 10.5802H7.4472V3.74043Z"/>
    </g>
    <g id="Bold-L" transform="matrix(5.19962772727273 0 0 5.19962772727273 2485.5339 1463.5741)">
      <path d="M4.85689 0V8.04584H0V10.5954L10.5 22L21 10.5954V8.04584H16.1432V0H13.445L10.5 3.60308L7.55508 0H4.85689ZM7.4472 3.74043L10.5 7.49617L13.5529 3.74043V10.5802H17.423L10.5 18.0458L3.57711 10.5802H7.4472V3.74043Z"/>
    </g>
    <g id="Heavy-S" transform="matrix(5.362890704545451 0 0 5.362890704545451 2780.5296 601.7787)">
      <path d="M4.85689 0V8.04584H0V10.5954L10.5 22L21 10.5954V8.04584H16.1432V0H13.445L10.5 3.60308L7.55508 0H4.85689ZM7.4472 3.74043L10.5 7.49617L13.5529 3.74043V10.5802H17.423L10.5 18.0458L3.57711 10.5802H7.4472V3.74043Z"/>
    </g>
    <g id="Heavy-M" transform="matrix(5.362966818181821 0 0 5.362966818181821 2780.5288 1031.7774)">
      <path d="M4.85689 0V8.04584H0V10.5954L10.5 22L21 10.5954V8.04584H16.1432V0H13.445L10.5 3.60308L7.55508 0H4.85689ZM7.4472 3.74043L10.5 7.49617L13.5529 3.74043V10.5802H17.423L10.5 18.0458L3.57711 10.5802H7.4472V3.74043Z"/>
    </g>
    <g id="Heavy-L" transform="matrix(5.362966818181821 0 0 5.362966818181821 2780.5288 1461.7774)">
      <path d="M4.85689 0V8.04584H0V10.5954L10.5 22L21 10.5954V8.04584H16.1432V0H13.445L10.5 3.60308L7.55508 0H4.85689ZM7.4472 3.74043L10.5 7.49617L13.5529 3.74043V10.5802H17.423L10.5 18.0458L3.57711 10.5802H7.4472V3.74043Z"/>
    </g>
    <g id="Black-S" transform="matrix(5.526227477272723 0 0 5.526227477272723 3075.5246 599.9820)">
      <path d="M4.85689 0V8.04584H0V10.5954L10.5 22L21 10.5954V8.04584H16.1432V0H13.445L10.5 3.60308L7.55508 0H4.85689ZM7.4472 3.74043L10.5 7.49617L13.5529 3.74043V10.5802H17.423L10.5 18.0458L3.57711 10.5802H7.4472V3.74043Z"/>
    </g>
    <g id="Black-M" transform="matrix(5.526305909090912 0 0 5.526305909090912 3075.5238 1029.9806)">
      <path d="M4.85689 0V8.04584H0V10.5954L10.5 22L21 10.5954V8.04584H16.1432V0H13.445L10.5 3.60308L7.55508 0H4.85689ZM7.4472 3.74043L10.5 7.49617L13.5529 3.74043V10.5802H17.423L10.5 18.0458L3.57711 10.5802H7.4472V3.74043Z"/>
    </g>
    <g id="Black-L" transform="matrix(5.526305909090912 0 0 5.526305909090912 3075.5238 1459.9806)">
      <path d="M4.85689 0V8.04584H0V10.5954L10.5 22L21 10.5954V8.04584H16.1432V0H13.445L10.5 3.60308L7.55508 0H4.85689ZM7.4472 3.74043L10.5 7.49617L13.5529 3.74043V10.5802H17.423L10.5 18.0458L3.57711 10.5802H7.4472V3.74043Z"/>
    </g>
  </g>
</svg>
